<svg width="36" height="41" viewBox="0 0 36 41" fill="none" xmlns="http://www.w3.org/2000/svg">
<path d="M4.24141 40.3333C3.17559 40.3333 2.26319 39.9433 1.5042 39.1632C0.745217 38.3831 0.365723 37.4454 0.365723 36.35V8.46656C0.365723 7.37114 0.745217 6.4334 1.5042 5.65333C2.26319 4.87325 3.17559 4.48322 4.24141 4.48322H12.3803C12.8002 3.28822 13.5027 2.32558 14.4877 1.5953C15.4728 0.865018 16.579 0.499878 17.8063 0.499878C19.0336 0.499878 20.1398 0.865018 21.1249 1.5953C22.1099 2.32558 22.8124 3.28822 23.2323 4.48322H31.3712C32.437 4.48322 33.3494 4.87325 34.1084 5.65333C34.8674 6.4334 35.2469 7.37114 35.2469 8.46656V36.35C35.2469 37.4454 34.8674 38.3831 34.1084 39.1632C33.3494 39.9433 32.437 40.3333 31.3712 40.3333H4.24141ZM4.24141 36.35H31.3712V8.46656H4.24141V36.35ZM10.0549 32.3666H19.7441C20.2932 32.3666 20.7534 32.1757 21.1249 31.794C21.4963 31.4123 21.682 30.9392 21.682 30.3749C21.682 29.8106 21.4963 29.3376 21.1249 28.9559C20.7534 28.5741 20.2932 28.3833 19.7441 28.3833H10.0549C9.50588 28.3833 9.04564 28.5741 8.67422 28.9559C8.3028 29.3376 8.11709 29.8106 8.11709 30.3749C8.11709 30.9392 8.3028 31.4123 8.67422 31.794C9.04564 32.1757 9.50588 32.3666 10.0549 32.3666ZM10.0549 24.3999H25.5577C26.1067 24.3999 26.567 24.2091 26.9384 23.8273C27.3098 23.4456 27.4955 22.9726 27.4955 22.4083C27.4955 21.8439 27.3098 21.3709 26.9384 20.9892C26.567 20.6075 26.1067 20.4166 25.5577 20.4166H10.0549C9.50588 20.4166 9.04564 20.6075 8.67422 20.9892C8.3028 21.3709 8.11709 21.8439 8.11709 22.4083C8.11709 22.9726 8.3028 23.4456 8.67422 23.8273C9.04564 24.2091 9.50588 24.3999 10.0549 24.3999ZM10.0549 16.4332H25.5577C26.1067 16.4332 26.567 16.2424 26.9384 15.8606C27.3098 15.4789 27.4955 15.0059 27.4955 14.4416C27.4955 13.8773 27.3098 13.4042 26.9384 13.0225C26.567 12.6408 26.1067 12.4499 25.5577 12.4499H10.0549C9.50588 12.4499 9.04564 12.6408 8.67422 13.0225C8.3028 13.4042 8.11709 13.8773 8.11709 14.4416C8.11709 15.0059 8.3028 15.4789 8.67422 15.8606C9.04564 16.2424 9.50588 16.4332 10.0549 16.4332ZM17.8063 6.97281C18.2262 6.97281 18.5734 6.83173 18.8479 6.54958C19.1224 6.26742 19.2597 5.91058 19.2597 5.47905C19.2597 5.04753 19.1224 4.69069 18.8479 4.40853C18.5734 4.12638 18.2262 3.9853 17.8063 3.9853C17.3864 3.9853 17.0392 4.12638 16.7647 4.40853C16.4902 4.69069 16.3529 5.04753 16.3529 5.47905C16.3529 5.91058 16.4902 6.26742 16.7647 6.54958C17.0392 6.83173 17.3864 6.97281 17.8063 6.97281Z" fill="#3BB537"/>
</svg>
