<svg width="41" height="41" viewBox="0 0 41 41" fill="none" xmlns="http://www.w3.org/2000/svg">
<path d="M12.4935 40.6169C11.3981 40.6169 10.4603 40.2269 9.68025 39.4468C8.90018 38.6667 8.51014 37.729 8.51014 36.6336C8.51014 35.5381 8.90018 34.6004 9.68025 33.8203C10.4603 33.0402 11.3981 32.6502 12.4935 32.6502C13.5889 32.6502 14.5266 33.0402 15.3067 33.8203C16.0868 34.6004 16.4768 35.5381 16.4768 36.6336C16.4768 37.729 16.0868 38.6667 15.3067 39.4468C14.5266 40.2269 13.5889 40.6169 12.4935 40.6169ZM32.4102 40.6169C31.3148 40.6169 30.377 40.2269 29.597 39.4468C28.8169 38.6667 28.4268 37.729 28.4268 36.6336C28.4268 35.5381 28.8169 34.6004 29.597 33.8203C30.377 33.0402 31.3148 32.6502 32.4102 32.6502C33.5056 32.6502 34.4434 33.0402 35.2234 33.8203C36.0035 34.6004 36.3935 35.5381 36.3935 36.6336C36.3935 37.729 36.0035 38.6667 35.2234 39.4468C34.4434 40.2269 33.5056 40.6169 32.4102 40.6169ZM4.5268 4.76682H2.53513C1.97082 4.76682 1.4978 4.57595 1.11606 4.19421C0.734325 3.81248 0.543457 3.33946 0.543457 2.77515C0.543457 2.21084 0.734325 1.73782 1.11606 1.35608C1.4978 0.974346 1.97082 0.783478 2.53513 0.783478H5.82138C6.18652 0.783478 6.53507 0.883061 6.86701 1.08223C7.19896 1.2814 7.44792 1.56355 7.61389 1.92869L15.5308 18.7085H29.4725L36.6923 5.76265C36.8583 5.43071 37.0906 5.18175 37.3894 5.01578C37.6881 4.84981 38.0201 4.76682 38.3852 4.76682C39.1487 4.76682 39.7213 5.09047 40.103 5.73776C40.4848 6.38505 40.4931 7.04064 40.1279 7.70453L33.0077 20.6006C32.6426 21.2645 32.1529 21.779 31.5388 22.1441C30.9247 22.5093 30.2525 22.6919 29.5223 22.6919H14.6843L12.4935 26.6752H34.4019C34.9662 26.6752 35.4392 26.8661 35.8209 27.2478C36.2027 27.6295 36.3935 28.1026 36.3935 28.6669C36.3935 29.2312 36.2027 29.7042 35.8209 30.0859C35.4392 30.4677 34.9662 30.6585 34.4019 30.6585H12.4935C10.9997 30.6585 9.86282 30.0112 9.08275 28.7167C8.30267 27.4221 8.27778 26.1109 9.00806 24.7831L11.6968 19.9035L4.5268 4.76682ZM22.8004 10.7418H16.4768C15.9125 10.7418 15.4395 10.551 15.0578 10.1692C14.676 9.78749 14.4852 9.31447 14.4852 8.75016C14.4852 8.18585 14.676 7.71283 15.0578 7.3311C15.4395 6.94936 15.9125 6.75849 16.4768 6.75849H22.8004L21.0079 4.96599C20.6095 4.56765 20.4187 4.10293 20.4353 3.57182C20.4519 3.0407 20.6593 2.57598 21.0577 2.17765C21.456 1.81251 21.9207 1.62164 22.4518 1.60504C22.9829 1.58844 23.4477 1.77931 23.846 2.17765L29.0243 7.35599C29.4227 7.75433 29.6218 8.21905 29.6218 8.75016C29.6218 9.28127 29.4227 9.746 29.0243 10.1443L23.846 15.3227C23.4809 15.6878 23.0244 15.8787 22.4767 15.8953C21.929 15.9119 21.456 15.721 21.0577 15.3227C20.6925 14.9575 20.51 14.4928 20.51 13.9285C20.51 13.3642 20.6925 12.8995 21.0577 12.5343L22.8004 10.7418Z" fill="#312E81"/>
</svg>
