<svg width="38" height="42" viewBox="0 0 38 42" fill="none" xmlns="http://www.w3.org/2000/svg">
<path d="M27.9267 41.4326C25.246 41.4326 22.9609 40.4879 21.0715 38.5985C19.1822 36.7091 18.2375 34.4241 18.2375 31.7434C18.2375 29.0627 19.1822 26.7777 21.0715 24.8883C22.9609 22.9989 25.246 22.0542 27.9267 22.0542C30.6073 22.0542 32.8924 22.9989 34.7818 24.8883C36.6712 26.7777 37.6159 29.0627 37.6159 31.7434C37.6159 34.4241 36.6712 36.7091 34.7818 38.5985C32.8924 40.4879 30.6073 41.4326 27.9267 41.4326ZM28.8956 31.3558V26.8988C28.8956 26.6404 28.7987 26.4144 28.6049 26.2206C28.4111 26.0268 28.185 25.9299 27.9267 25.9299C27.6683 25.9299 27.4422 26.0268 27.2484 26.2206C27.0546 26.4144 26.9577 26.6404 26.9577 26.8988V31.3074C26.9577 31.5658 27.0062 31.8161 27.1031 32.0583C27.2 32.3005 27.3453 32.5186 27.5391 32.7123L30.4943 35.6675C30.6881 35.8613 30.9142 35.9582 31.1726 35.9582C31.4309 35.9582 31.657 35.8613 31.8508 35.6675C32.0446 35.4738 32.1415 35.2477 32.1415 34.9893C32.1415 34.7309 32.0446 34.5048 31.8508 34.3111L28.8956 31.3558ZM4.67256 39.4948C3.60675 39.4948 2.69435 39.1153 1.93536 38.3563C1.17637 37.5973 0.796875 36.6849 0.796875 35.6191V8.48931C0.796875 7.4235 1.17637 6.5111 1.93536 5.75211C2.69435 4.99312 3.60675 4.61363 4.67256 4.61363H12.7631C13.1183 3.48322 13.8127 2.55467 14.8462 1.82798C15.8797 1.10129 17.0102 0.737946 18.2375 0.737946C19.5293 0.737946 20.684 1.10129 21.7013 1.82798C22.7187 2.55467 23.405 3.48322 23.7603 4.61363H31.8023C32.8682 4.61363 33.7806 4.99312 34.5396 5.75211C35.2985 6.5111 35.678 7.4235 35.678 8.48931V16.2407C35.678 16.7897 35.4923 17.25 35.1209 17.6214C34.7495 17.9928 34.2892 18.1785 33.7402 18.1785C33.1911 18.1785 32.7309 17.9928 32.3595 17.6214C31.9881 17.25 31.8023 16.7897 31.8023 16.2407V8.48931H27.9267V12.365C27.9267 12.9141 27.741 13.3743 27.3695 13.7457C26.9981 14.1171 26.5379 14.3028 25.9888 14.3028H10.4861C9.93703 14.3028 9.47679 14.1171 9.10537 13.7457C8.73395 13.3743 8.54824 12.9141 8.54824 12.365V8.48931H4.67256V35.6191H13.3928C13.9419 35.6191 14.4021 35.8048 14.7736 36.1762C15.145 36.5476 15.3307 37.0079 15.3307 37.5569C15.3307 38.106 15.145 38.5662 14.7736 38.9377C14.4021 39.3091 13.9419 39.4948 13.3928 39.4948H4.67256ZM18.2375 8.48931C18.7865 8.48931 19.2467 8.3036 19.6182 7.93218C19.9896 7.56076 20.1753 7.10053 20.1753 6.55147C20.1753 6.00242 19.9896 5.54218 19.6182 5.17076C19.2467 4.79934 18.7865 4.61363 18.2375 4.61363C17.6884 4.61363 17.2282 4.79934 16.8567 5.17076C16.4853 5.54218 16.2996 6.00242 16.2996 6.55147C16.2996 7.10053 16.4853 7.56076 16.8567 7.93218C17.2282 8.3036 17.6884 8.48931 18.2375 8.48931Z" fill="#FFBE55"/>
</svg>
