<svg width="18" height="20" viewBox="0 0 18 20" fill="none" xmlns="http://www.w3.org/2000/svg">
<path fill-rule="evenodd" clip-rule="evenodd" d="M0 2.03091C0 1.63309 0.158035 1.25156 0.43934 0.970254C0.720644 0.68895 1.10218 0.530914 1.5 0.530914H16.5C16.8978 0.530914 17.2794 0.68895 17.5607 0.970254C17.842 1.25156 18 1.63309 18 2.03091V4.11691C17.9999 4.6473 17.7891 5.15593 17.414 5.53091L12 10.9449V18.3689C12 18.5564 11.9521 18.7409 11.8608 18.9046C11.7695 19.0684 11.6379 19.2062 11.4783 19.3048C11.3188 19.4034 11.1368 19.4595 10.9494 19.468C10.7621 19.4764 10.5757 19.4368 10.408 19.3529L6.691 17.4949C6.48337 17.3911 6.30875 17.2315 6.1867 17.0341C6.06466 16.8366 6.00001 16.6091 6 16.3769V10.9449L0.586 5.53091C0.210901 5.15593 0.000113275 4.6473 0 4.11691V2.03091ZM2 2.53091V4.11691L7.56 9.67691C7.69945 9.81619 7.81008 9.98158 7.88558 10.1636C7.96108 10.3457 7.99996 10.5408 8 10.7379V15.9129L10 16.9129V10.7379C10 10.3399 10.158 9.95791 10.44 9.67791L16 4.11591V2.53091H2Z" fill="white"/>
</svg>
