<svg width="18" height="17" viewBox="0 0 18 17" fill="none" xmlns="http://www.w3.org/2000/svg">
<path d="M1.89474 17C1.37368 17 0.927632 16.815 0.556579 16.4451C0.185526 16.0752 0 15.6306 0 15.1111V1.88889C0 1.36944 0.185526 0.924769 0.556579 0.554861C0.927632 0.184954 1.37368 0 1.89474 0H15.1579C15.6789 0 16.125 0.184954 16.4961 0.554861C16.8671 0.924769 17.0526 1.36944 17.0526 1.88889V4.25H15.1579V1.88889H1.89474V15.1111H15.1579V12.75H17.0526V15.1111C17.0526 15.6306 16.8671 16.0752 16.4961 16.4451C16.125 16.815 15.6789 17 15.1579 17H1.89474ZM9.47368 13.2222C8.95263 13.2222 8.50658 13.0373 8.13553 12.6674C7.76447 12.2975 7.57895 11.8528 7.57895 11.3333V5.66667C7.57895 5.14722 7.76447 4.70255 8.13553 4.33264C8.50658 3.96273 8.95263 3.77778 9.47368 3.77778H16.1053C16.6263 3.77778 17.0724 3.96273 17.4434 4.33264C17.8145 4.70255 18 5.14722 18 5.66667V11.3333C18 11.8528 17.8145 12.2975 17.4434 12.6674C17.0724 13.0373 16.6263 13.2222 16.1053 13.2222H9.47368ZM16.1053 11.3333V5.66667H9.47368V11.3333H16.1053ZM12.3158 9.91667C12.7105 9.91667 13.0461 9.77894 13.3224 9.50347C13.5987 9.22801 13.7368 8.89352 13.7368 8.5C13.7368 8.10648 13.5987 7.77199 13.3224 7.49653C13.0461 7.22107 12.7105 7.08333 12.3158 7.08333C11.9211 7.08333 11.5855 7.22107 11.3092 7.49653C11.0329 7.77199 10.8947 8.10648 10.8947 8.5C10.8947 8.89352 11.0329 9.22801 11.3092 9.50347C11.5855 9.77894 11.9211 9.91667 12.3158 9.91667Z" fill="#6D6D6D"/>
</svg>
