<svg width="90" height="90" viewBox="0 0 90 90" fill="none" xmlns="http://www.w3.org/2000/svg">
<circle cx="45" cy="45" r="45" fill="url(#paint0_radial_157_1415)"/>
<circle cx="45.0002" cy="44.9999" r="36.4655" fill="url(#paint1_radial_157_1415)"/>
<circle cx="44.9999" cy="45" r="27.1552" fill="url(#paint2_radial_157_1415)"/>
<path d="M37.6308 32.5112L37.6547 32.4969L37.7643 32.4325C37.8612 32.3737 38.0081 32.2919 38.2051 32.1871C38.5983 31.9798 39.1702 31.7009 39.878 31.4245C41.3054 30.8574 43.238 30.314 45.3327 30.314C47.4274 30.314 49.36 30.8621 50.7874 31.4221C51.5148 31.709 52.2211 32.0466 52.9011 32.4325C52.9504 32.4595 52.9861 32.481 53.0084 32.4969L53.0322 32.5112H53.0346C53.3011 32.6734 53.6207 32.7245 53.9246 32.6536C54.2285 32.5827 54.4924 32.3955 54.6597 32.132C54.827 31.8686 54.8843 31.5501 54.8192 31.2449C54.7542 30.9397 54.572 30.6722 54.3119 30.4999L54.3047 30.4951L54.2928 30.488L54.2499 30.4618L54.1045 30.3736C53.319 29.927 52.5028 29.5368 51.662 29.2059C50.0606 28.5744 47.8229 27.931 45.3327 27.931C42.8425 27.931 40.6024 28.5744 39.0058 29.2059C38.1642 29.5367 37.3471 29.9269 36.5609 30.3736L36.4155 30.4618L36.3726 30.4856L36.3607 30.4951L36.3559 30.4975C36.0889 30.6666 35.9 30.9348 35.8307 31.2432C35.7614 31.5515 35.8175 31.8748 35.9866 32.1418C36.1556 32.4088 36.4238 32.5978 36.7322 32.667C37.0406 32.7363 37.3638 32.6802 37.6308 32.5112ZM35.8007 35.08C34.5367 35.08 33.3244 35.5822 32.4306 36.476C31.5368 37.3698 31.0347 38.582 31.0347 39.8461V49.3781C31.0347 50.6421 31.5368 51.8544 32.4306 52.7482C33.3244 53.642 34.5367 54.1441 35.8007 54.1441H46.5242C47.7882 54.1441 49.0005 53.642 49.8943 52.7482C50.7881 51.8544 51.2902 50.6421 51.2902 49.3781V49.0492L57.8482 52.7953C58.0294 52.8988 58.2346 52.9529 58.4433 52.9522C58.6519 52.9515 58.8567 52.896 59.0372 52.7913C59.2177 52.6866 59.3675 52.5363 59.4716 52.3555C59.5758 52.1747 59.6307 51.9697 59.6307 51.7611V37.463C59.6307 37.2544 59.5758 37.0494 59.4716 36.8686C59.3675 36.6878 59.2177 36.5376 59.0372 36.4328C58.8567 36.3281 58.6519 36.2726 58.4433 36.2719C58.2346 36.2712 58.0294 36.3253 57.8482 36.4288L51.2902 40.1749V39.8461C51.2902 38.582 50.7881 37.3698 49.8943 36.476C49.0005 35.5822 47.7882 35.08 46.5242 35.08H35.8007ZM51.2902 42.9201L57.2477 39.5172V49.7069L51.2902 46.304V42.9201ZM33.4177 39.8461C33.4177 39.214 33.6687 38.6079 34.1156 38.161C34.5625 37.7141 35.1687 37.463 35.8007 37.463H46.5242C47.1562 37.463 47.7623 37.7141 48.2092 38.161C48.6561 38.6079 48.9072 39.214 48.9072 39.8461V49.3781C48.9072 50.0101 48.6561 50.6162 48.2092 51.0631C47.7623 51.51 47.1562 51.7611 46.5242 51.7611H35.8007C35.1687 51.7611 34.5625 51.51 34.1156 51.0631C33.6687 50.6162 33.4177 50.0101 33.4177 49.3781V39.8461ZM37.6332 56.7153L37.6308 56.713C37.3642 56.5508 37.0447 56.4996 36.7408 56.5705C36.4369 56.6414 36.1729 56.8287 36.0057 57.0921C35.8384 57.3555 35.7811 57.674 35.8461 57.9792C35.9112 58.2844 36.0934 58.5519 36.3535 58.7242L36.3607 58.729L36.3726 58.7361L36.4155 58.7623C36.4489 58.7846 36.4973 58.814 36.5609 58.8505C36.6879 58.9236 36.8659 59.0221 37.0946 59.146C37.5498 59.3843 38.2027 59.7013 39.0058 60.0182C40.6024 60.6473 42.8425 61.2931 45.3327 61.2931C47.8253 61.2931 50.063 60.6497 51.6596 60.0182C52.5012 59.6874 53.3183 59.2972 54.1045 58.8505L54.2499 58.7623L54.2928 58.7385L54.3047 58.729L54.3095 58.7266C54.5765 58.5572 54.7677 58.2887 54.8367 57.9801C54.9058 57.6715 54.8494 57.3482 54.68 57.0811C54.5107 56.8141 54.2421 56.6253 53.9336 56.5563C53.625 56.4872 53.3016 56.5436 53.0346 56.713L53.0107 56.7296L52.9011 56.7916C52.8042 56.8504 52.6573 56.9322 52.4603 57.0371C51.9171 57.3218 51.3586 57.5764 50.7874 57.7996C49.36 58.3668 47.4274 58.9101 45.3327 58.9101C43.238 58.9101 41.3054 58.362 39.878 57.802C39.1506 57.5152 38.4443 57.1775 37.7643 56.7916L37.657 56.7273L37.6332 56.7153Z" fill="white"/>
<defs>
<radialGradient id="paint0_radial_157_1415" cx="0" cy="0" r="1" gradientUnits="userSpaceOnUse" gradientTransform="translate(45 45) rotate(90) scale(45)">
<stop stop-color="#312E81"/>
<stop offset="1" stop-color="#312E81" stop-opacity="0.5"/>
</radialGradient>
<radialGradient id="paint1_radial_157_1415" cx="0" cy="0" r="1" gradientUnits="userSpaceOnUse" gradientTransform="translate(45.0002 44.9999) rotate(90) scale(36.4655)">
<stop stop-color="#312E81"/>
<stop offset="1" stop-color="#312E81" stop-opacity="0.5"/>
</radialGradient>
<radialGradient id="paint2_radial_157_1415" cx="0" cy="0" r="1" gradientUnits="userSpaceOnUse" gradientTransform="translate(44.9999 45) rotate(90) scale(27.1552)">
<stop stop-color="#312E81"/>
<stop offset="1" stop-color="#312E81" stop-opacity="0.5"/>
</radialGradient>
</defs>
</svg>
