<svg width="29" height="35" viewBox="0 0 29 35" fill="none" xmlns="http://www.w3.org/2000/svg">
<path d="M6.63083 5.51117L6.65466 5.49687L6.76427 5.43253C6.86118 5.37375 7.00813 5.29193 7.20513 5.18708C7.59833 4.97976 8.17025 4.70094 8.878 4.42452C10.3054 3.85736 12.238 3.31404 14.3327 3.31404C16.4274 3.31404 18.36 3.86213 19.7874 4.42213C20.5148 4.70898 21.2211 5.04661 21.9011 5.43253C21.9504 5.45953 21.9861 5.48098 22.0084 5.49687L22.0322 5.51117H22.0346C22.3011 5.67337 22.6207 5.72452 22.9246 5.65363C23.2285 5.58274 23.4924 5.39546 23.6597 5.13205C23.827 4.86863 23.8843 4.5501 23.8192 4.24491C23.7542 3.93971 23.572 3.67222 23.3119 3.49991L23.3047 3.49514L23.2928 3.48799L23.2499 3.46178L23.1045 3.37361C22.319 2.92699 21.5028 2.53678 20.662 2.20594C19.0606 1.57444 16.8229 0.93103 14.3327 0.93103C11.8425 0.93103 9.60243 1.57444 8.00582 2.20594C7.16417 2.53668 6.34712 2.92689 5.56086 3.37361L5.41549 3.46178L5.3726 3.48561L5.36068 3.49514L5.35592 3.49753C5.08889 3.66659 4.89996 3.9348 4.83069 4.24317C4.76143 4.55153 4.81749 4.87477 4.98655 5.1418C5.15562 5.40882 5.42383 5.59775 5.73219 5.66702C6.04055 5.73629 6.3638 5.68023 6.63083 5.51117ZM4.80068 8.08004C3.53665 8.08005 2.3244 8.58218 1.4306 9.47598C0.536799 10.3698 0.034668 11.582 0.034668 12.8461V22.3781C0.034668 23.6421 0.536799 24.8544 1.4306 25.7482C2.3244 26.642 3.53665 27.1441 4.80068 27.1441H15.5242C16.7882 27.1441 18.0005 26.642 18.8943 25.7482C19.7881 24.8544 20.2902 23.6421 20.2902 22.3781V22.0492L26.8482 25.7953C27.0294 25.8988 27.2346 25.9529 27.4433 25.9522C27.6519 25.9515 27.8567 25.896 28.0372 25.7913C28.2177 25.6866 28.3675 25.5363 28.4716 25.3555C28.5758 25.1747 28.6307 24.9697 28.6307 24.7611V10.463C28.6307 10.2544 28.5758 10.0494 28.4716 9.86862C28.3675 9.68783 28.2177 9.53756 28.0372 9.43284C27.8567 9.32813 27.6519 9.27264 27.4433 9.27194C27.2346 9.27123 27.0294 9.32533 26.8482 9.42883L20.2902 13.1749V12.8461C20.2902 11.582 19.7881 10.3698 18.8943 9.47598C18.0005 8.58218 16.7882 8.08005 15.5242 8.08004H4.80068ZM20.2902 15.9201L26.2477 12.5172V22.7069L20.2902 19.304V15.9201ZM2.41767 12.8461C2.41767 12.214 2.66874 11.6079 3.11564 11.161C3.56254 10.7141 4.16867 10.463 4.80068 10.463H15.5242C16.1562 10.463 16.7623 10.7141 17.2092 11.161C17.6561 11.6079 17.9072 12.214 17.9072 12.8461V22.3781C17.9072 23.0101 17.6561 23.6162 17.2092 24.0631C16.7623 24.51 16.1562 24.7611 15.5242 24.7611H4.80068C4.16867 24.7611 3.56254 24.51 3.11564 24.0631C2.66874 23.6162 2.41767 23.0101 2.41767 22.3781V12.8461ZM6.63321 29.7153L6.63083 29.713C6.36425 29.5508 6.04468 29.4996 5.74079 29.5705C5.4369 29.6414 5.17295 29.8287 5.00566 30.0921C4.83837 30.3555 4.7811 30.674 4.84615 30.9792C4.9112 31.2844 5.09338 31.5519 5.35353 31.7242L5.36068 31.729L5.3726 31.7361L5.41549 31.7623C5.44885 31.7846 5.49731 31.814 5.56086 31.8505C5.68795 31.9236 5.86588 32.0221 6.09465 32.146C6.5498 32.3843 7.20275 32.7013 8.00582 33.0182C9.60243 33.6473 11.8425 34.2931 14.3327 34.2931C16.8253 34.2931 19.063 33.6497 20.6596 33.0182C21.5012 32.6874 22.3183 32.2972 23.1045 31.8505L23.2499 31.7623L23.2928 31.7385L23.3047 31.729L23.3095 31.7266C23.5765 31.5572 23.7677 31.2887 23.8367 30.9801C23.9058 30.6715 23.8494 30.3482 23.68 30.0811C23.5107 29.8141 23.2421 29.6253 22.9336 29.5563C22.625 29.4872 22.3016 29.5436 22.0346 29.713L22.0107 29.7296L21.9011 29.7916C21.8042 29.8504 21.6573 29.9322 21.4603 30.0371C20.9171 30.3218 20.3586 30.5764 19.7874 30.7996C18.36 31.3668 16.4274 31.9101 14.3327 31.9101C12.238 31.9101 10.3054 31.362 8.878 30.802C8.15061 30.5152 7.4443 30.1775 6.76427 29.7916L6.65704 29.7273L6.63321 29.7153Z" fill="white"/>
</svg>
