<svg width="15" height="16" viewBox="0 0 15 16" fill="none" xmlns="http://www.w3.org/2000/svg">
<path d="M3.8065 2.19657L3.81792 2.18971L3.8705 2.15886C3.91697 2.13067 3.98745 2.09143 4.08192 2.04114C4.27049 1.94171 4.54478 1.808 4.88421 1.67543C5.56878 1.40343 6.49564 1.14286 7.50021 1.14286C8.50478 1.14286 9.43164 1.40571 10.1162 1.67429C10.4651 1.81185 10.8038 1.97377 11.1299 2.15886C11.1535 2.17181 11.1707 2.1821 11.1814 2.18971L11.1928 2.19657H11.1939C11.3218 2.27436 11.475 2.29889 11.6208 2.2649C11.7665 2.2309 11.8931 2.14108 11.9733 2.01475C12.0536 1.88842 12.081 1.73566 12.0498 1.58929C12.0186 1.44292 11.9313 1.31464 11.8065 1.232L11.8031 1.22971L11.7974 1.22629L11.7768 1.21371L11.7071 1.17143C11.3304 0.957237 10.9389 0.770098 10.5356 0.611429C9.76764 0.308571 8.6945 0 7.50021 0C6.30592 0 5.23164 0.308571 4.46592 0.611429C4.06228 0.770048 3.67043 0.957188 3.29335 1.17143L3.22364 1.21371L3.20307 1.22514L3.19735 1.22971L3.19507 1.23086C3.067 1.31194 2.9764 1.44057 2.94318 1.58846C2.90996 1.73634 2.93684 1.89137 3.01792 2.01943C3.099 2.14749 3.22764 2.2381 3.37552 2.27132C3.52341 2.30454 3.67843 2.27765 3.8065 2.19657ZM2.92878 3.42857C2.32257 3.42857 1.74119 3.66939 1.31254 4.09804C0.883882 4.5267 0.643066 5.10808 0.643066 5.71429V10.2857C0.643066 10.8919 0.883882 11.4733 1.31254 11.902C1.74119 12.3306 2.32257 12.5714 2.92878 12.5714H8.07164C8.67785 12.5714 9.25923 12.3306 9.68788 11.902C10.1165 11.4733 10.3574 10.8919 10.3574 10.2857V10.128L13.5025 11.9246C13.5894 11.9742 13.6878 12.0002 13.7879 11.9998C13.8879 11.9995 13.9861 11.9729 14.0727 11.9226C14.1593 11.8724 14.2311 11.8004 14.2811 11.7137C14.331 11.6269 14.3573 11.5286 14.3574 11.4286V4.57143C14.3573 4.47136 14.331 4.37306 14.2811 4.28635C14.2311 4.19964 14.1593 4.12757 14.0727 4.07736C13.9861 4.02714 13.8879 4.00053 13.7879 4.00019C13.6878 3.99985 13.5894 4.02579 13.5025 4.07543L10.3574 5.872V5.71429C10.3574 5.10808 10.1165 4.5267 9.68788 4.09804C9.25923 3.66939 8.67785 3.42857 8.07164 3.42857H2.92878ZM10.3574 7.18857L13.2145 5.55657V10.4434L10.3574 8.81143V7.18857ZM1.78592 5.71429C1.78592 5.41118 1.90633 5.12049 2.12066 4.90616C2.33499 4.69184 2.62568 4.57143 2.92878 4.57143H8.07164C8.37474 4.57143 8.66543 4.69184 8.87976 4.90616C9.09409 5.12049 9.2145 5.41118 9.2145 5.71429V10.2857C9.2145 10.5888 9.09409 10.8795 8.87976 11.0938C8.66543 11.3082 8.37474 11.4286 8.07164 11.4286H2.92878C2.62568 11.4286 2.33499 11.3082 2.12066 11.0938C1.90633 10.8795 1.78592 10.5888 1.78592 10.2857V5.71429ZM3.80764 13.8046L3.8065 13.8034C3.67865 13.7256 3.52539 13.7011 3.37965 13.7351C3.2339 13.7691 3.10732 13.8589 3.02709 13.9852C2.94686 14.1116 2.91939 14.2643 2.95059 14.4107C2.98178 14.5571 3.06915 14.6854 3.19392 14.768L3.19735 14.7703L3.20307 14.7737L3.22364 14.7863C3.23964 14.797 3.26288 14.811 3.29335 14.8286C3.3543 14.8636 3.43964 14.9109 3.54935 14.9703C3.76764 15.0846 4.08078 15.2366 4.46592 15.3886C5.23164 15.6903 6.30592 16 7.50021 16C8.69564 16 9.76878 15.6914 10.5345 15.3886C10.9381 15.23 11.33 15.0428 11.7071 14.8286L11.7768 14.7863L11.7974 14.7749L11.8031 14.7703L11.8054 14.7691C11.9334 14.6879 12.0251 14.5591 12.0582 14.4111C12.0913 14.2631 12.0643 14.1081 11.9831 13.98C11.9018 13.8519 11.7731 13.7614 11.6251 13.7283C11.4771 13.6952 11.322 13.7222 11.1939 13.8034L11.1825 13.8114L11.1299 13.8411C11.0834 13.8693 11.013 13.9086 10.9185 13.9589C10.658 14.0954 10.3902 14.2175 10.1162 14.3246C9.43164 14.5966 8.50478 14.8571 7.50021 14.8571C6.49564 14.8571 5.56878 14.5943 4.88421 14.3257C4.53537 14.1881 4.19663 14.0262 3.8705 13.8411L3.81907 13.8103L3.80764 13.8046Z" fill="white"/>
</svg>
